<svg width="37" height="36" viewBox="0 0 37 36" fill="none" xmlns="http://www.w3.org/2000/svg">
<path d="M15.6468 2.78096C16.5449 0.0170252 20.4551 0.0170252 21.3532 2.78096L23.5516 9.54691C23.9532 10.783 25.1051 11.6199 26.4047 11.6199H33.5189C36.4251 11.6199 37.6334 15.3387 35.2822 17.0469L29.5268 21.2285C28.4753 21.9924 28.0353 23.3465 28.437 24.5826L30.6354 31.3486C31.5334 34.1125 28.37 36.4109 26.0188 34.7027L20.2634 30.5211C19.2119 29.7572 17.7881 29.7572 16.7366 30.5211L10.9812 34.7027C8.63 36.4109 5.4666 34.1125 6.3646 31.3486L8.563 24.5826C8.9647 23.3465 8.5247 21.9924 7.4732 21.2285L1.71775 17.0469C-0.63339 15.3387 0.574941 11.6199 3.4811 11.6199H10.5953C11.8949 11.6199 13.0468 10.783 13.4484 9.54691L15.6468 2.78096Z" fill="#FFC226"/>
</svg>
